<svg width="34" height="32" viewBox="0 0 34 32" fill="none" xmlns="http://www.w3.org/2000/svg">
<g filter="url(#filter0_d_147_795)">
<path d="M22.1594 15.4969L23.6038 14.0594C23.8295 13.8348 24.2222 13.992 24.2222 14.3155V20.8471C24.2222 22.0375 23.2517 23.0034 22.0556 23.0034H6.16667C4.97049 23.0034 4 22.0375 4 20.8471V5.03462C4 3.84419 4.97049 2.87837 6.16667 2.87837H18.5122C18.8326 2.87837 18.9951 3.2647 18.7694 3.4938L17.325 4.9313C17.2573 4.99868 17.167 5.03462 17.0677 5.03462H6.16667V20.8471H22.0556V15.7485C22.0556 15.6542 22.0917 15.5643 22.1594 15.4969ZM29.2281 6.43169L17.3747 18.2282L13.2941 18.6774C12.1115 18.8077 11.1049 17.8149 11.2358 16.629L11.6872 12.568L23.5406 0.771533C24.5743 -0.257178 26.2444 -0.257178 27.2736 0.771533L29.2236 2.71216C30.2573 3.74087 30.2573 5.40747 29.2281 6.43169ZM24.7684 7.81978L22.1458 5.20981L13.759 13.5608L13.4295 16.4942L16.3771 16.1663L24.7684 7.81978ZM27.6934 4.2395L25.7434 2.29888C25.5583 2.1147 25.2559 2.1147 25.0753 2.29888L23.6806 3.68696L26.3031 6.29692L27.6979 4.90884C27.8785 4.72017 27.8785 4.42368 27.6934 4.2395Z" fill="black"/>
</g>
<defs>
<filter id="filter0_d_147_795" x="0" y="0" width="33.999" height="31.0034" filterUnits="userSpaceOnUse" color-interpolation-filters="sRGB">
<feFlood flood-opacity="0" result="BackgroundImageFix"/>
<feColorMatrix in="SourceAlpha" type="matrix" values="0 0 0 0 0 0 0 0 0 0 0 0 0 0 0 0 0 0 127 0" result="hardAlpha"/>
<feOffset dy="4"/>
<feGaussianBlur stdDeviation="2"/>
<feComposite in2="hardAlpha" operator="out"/>
<feColorMatrix type="matrix" values="0 0 0 0 0 0 0 0 0 0 0 0 0 0 0 0 0 0 0.25 0"/>
<feBlend mode="normal" in2="BackgroundImageFix" result="effect1_dropShadow_147_795"/>
<feBlend mode="normal" in="SourceGraphic" in2="effect1_dropShadow_147_795" result="shape"/>
</filter>
</defs>
</svg>
